<svg width="28" height="28" viewBox="0 0 28 28" fill="none" xmlns="http://www.w3.org/2000/svg">
<path fill-rule="evenodd" clip-rule="evenodd" d="M28 14C28 17.713 26.525 21.274 23.8995 23.8995C21.274 26.525 17.713 28 14 28C10.287 28 6.72601 26.525 4.10051 23.8995C1.475 21.274 0 17.713 0 14C0 10.287 1.475 6.72601 4.10051 4.10051C6.72601 1.475 10.287 0 14 0C17.713 0 21.274 1.475 23.8995 4.10051C26.525 6.72601 28 10.287 28 14ZM14.875 8.75C14.875 8.51794 14.7828 8.29538 14.6187 8.13128C14.4546 7.96719 14.2321 7.875 14 7.875C13.7679 7.875 13.5454 7.96719 13.3813 8.13128C13.2172 8.29538 13.125 8.51794 13.125 8.75V17.1378L9.3695 13.3805C9.28815 13.2991 9.19157 13.2346 9.08527 13.1906C8.97898 13.1466 8.86505 13.1239 8.75 13.1239C8.63495 13.1239 8.52102 13.1466 8.41473 13.1906C8.30843 13.2346 8.21185 13.2991 8.1305 13.3805C8.04915 13.4619 7.98461 13.5584 7.94058 13.6647C7.89656 13.771 7.87389 13.8849 7.87389 14C7.87389 14.1151 7.89656 14.229 7.94058 14.3353C7.98461 14.4416 8.04915 14.5381 8.1305 14.6195L13.3805 19.8695C13.4618 19.951 13.5583 20.0156 13.6646 20.0597C13.7709 20.1039 13.8849 20.1266 14 20.1266C14.1151 20.1266 14.2291 20.1039 14.3354 20.0597C14.4417 20.0156 14.5382 19.951 14.6195 19.8695L19.8695 14.6195C20.0338 14.4552 20.1261 14.2324 20.1261 14C20.1261 13.7676 20.0338 13.5448 19.8695 13.3805C19.7052 13.2162 19.4824 13.1239 19.25 13.1239C19.0176 13.1239 18.7948 13.2162 18.6305 13.3805L14.875 17.1378V8.75Z" fill="#64BC6E"/>
</svg>
