<?xml version="1.0" encoding="utf-8"?>
<!-- Generator: Adobe Illustrator 16.0.0, SVG Export Plug-In . SVG Version: 6.00 Build 0)  -->
<!DOCTYPE svg PUBLIC "-//W3C//DTD SVG 1.1//EN" "http://www.w3.org/Graphics/SVG/1.1/DTD/svg11.dtd">
<svg version="1.1" id="Layer_1" xmlns="http://www.w3.org/2000/svg" xmlns:xlink="http://www.w3.org/1999/xlink" x="0px" y="0px"
	 width="216px" height="187px" viewBox="0 0 216 187" enable-background="new 0 0 216 187" xml:space="preserve">
<circle fill="#ECF0F1" cx="108" cy="93" r="93"/>
<circle fill="#FAD24D" cx="108" cy="93" r="93"/>
<path fill="#F0BA7D" d="M98.026,86.689l-2.527,12.698l-8.467,2.912l5.011,79.048l32.217-0.183l1.504-80.358l-5.407-1.701
	l-2.756-12.954L98.026,86.689L98.026,86.689z"/>
<path fill="#21D0C3" d="M85.11,124.354c14.096,6.834,28.596,8.269,43.859,0.388l-0.521,58.997C121.868,185.215,115.026,186,108,186
	c-8.085,0-15.929-1.033-23.407-2.973L85.11,124.354z"/>
<path fill="#EEF3F7" d="M123.076,100.073l24.555,6.697c6.367,1.965,12.057,5.73,12.238,12.496l1.347,50.006
	c-5.596,3.912-11.643,7.221-18.046,9.84l-1.566-27.655l-4.301,29.827C128.091,184.343,118.239,186,108,186
	c-0.267,0-0.532-0.008-0.799-0.01l-0.011-25.353L123.076,100.073z"/>
<g>
	<path fill="#FFFFFF" d="M122.842,99.899l3.235,1.306l11.038,16.57l-12.938-0.209l8.02,4.291l-25.006,38.78L122.842,99.899
		L122.842,99.899z"/>
	<path fill="#FFFFFF" d="M94.349,99.82l-24.669,6.263c-6.402,1.854-12.156,5.518-12.458,12.279l-2.275,51.023
		c5.547,3.86,11.534,7.13,17.871,9.723l2.1-28.239l3.842,30.436c8.954,2.966,18.511,4.602,28.44,4.686l-0.01-25.353L94.349,99.82
		L94.349,99.82z"/>
</g>
<path fill="#EEF3F7" d="M94.586,99.65l-3.858,1.478L80,117.271l12.939,0.021l-8.094,4.148l22.345,39.197L94.586,99.65L94.586,99.65z
	"/>
<path fill="#FED298" d="M81.327,56.236c-0.413,4.162,0.421,13.402,5.47,13.05c0,0,7.266,21.178,21.256,23.576
	c12.078-2.207,19.425-21.387,19.982-23.212c1.663,0.568,6.319-7.177,2.75-13.513c-1.023-1.817-3.922-0.346-3.922-0.346l-0.223-5.291
	c-19.085,1.853-30.986-16.606-30.986-16.606c-7.275,7.914-9.026,12.431-9.804,22.274c0,0-1.366-0.848-2.883-0.88
	C82.51,55.277,81.924,55.675,81.327,56.236L81.327,56.236z"/>
<path fill="#666666" d="M95.499,99.388l2.472-12.415c-7.161-7.051-10.896-17.686-10.896-17.686
	c-4.879,0.544-6.839-12.904-3.556-13.374c1.501-0.215,2.507,0.255,2.507,0.255c0.739-10.393,2.741-13.553,9.628-22.274
	c0,0,12.03,20.242,31.102,18.388l0.272,4.365c0.901-0.887,2.55-1.72,3.923,0.539c2.234,3.674-0.688,12.025-3.394,12.535
	c-0.384,1.288-3.395,10.788-9.772,17.297l2.571,12.088c7.156,2.317,14.056,4.107,20.981,5.949
	c-3.518-21.448-5.534-44.656-9.735-64.468c-4.031-19.011-26.071-24.328-38.745-15.885c0,0-10.928,4.403-12.923,19.007
	c-1.994,14.603-1.231,16.01-1.231,16.01l-3.521,44.966C81.711,103.029,89.272,101.529,95.499,99.388L95.499,99.388z"/>
<path fill="#FEFEFE" d="M141.613,152.184c-3.629-0.627-6.063-4.077-5.437-7.706c0.626-3.628,4.077-6.063,7.706-5.438
	c3.629,0.627,6.063,4.078,5.437,7.707C148.693,150.376,145.242,152.811,141.613,152.184z"/>
<path fill="#0F7986" d="M141.68,151.801c-3.418-0.591-5.711-3.839-5.12-7.257c0.59-3.418,3.839-5.711,7.258-5.12
	c3.418,0.59,5.71,3.84,5.12,7.258C148.346,150.1,145.098,152.391,141.68,151.801z"/>
<path fill="#EBECEC" d="M142.156,149.037c-1.89-0.326-3.159-2.126-2.833-4.016c0.326-1.892,2.125-3.159,4.016-2.833
	c1.892,0.327,3.159,2.124,2.833,4.016C145.846,148.095,144.048,149.363,142.156,149.037L142.156,149.037z"/>
<path fill="#FEFEFE" d="M142.565,142.561l1.527,0.264l0.82-4.756l-1.526-0.263L142.565,142.561L142.565,142.561z"/>
<path fill="#21D0C3" d="M91.424,153.503l2.861-0.567c1.215-0.242,2.223-0.958,2.865-1.918s0.92-2.164,0.678-3.38l-3.364-16.954
	c-1.27-6.397-6.275-9.659-11.994-10.383c-2.192-0.277-4.489-0.176-6.715,0.265c-2.227,0.44-4.386,1.225-6.305,2.317
	c-4.997,2.846-8.364,7.767-7.092,14.174l3.365,16.954c0.242,1.216,0.959,2.223,1.918,2.864h0.002
	c0.96,0.643,2.163,0.919,3.378,0.679l2.859-0.568l-0.234-1.179l-2.86,0.567c-0.892,0.177-1.775-0.026-2.479-0.496l0-0.001
	c-0.704-0.472-1.23-1.209-1.407-2.1l-3.365-16.954c-1.154-5.814,1.932-10.296,6.503-12.897c1.807-1.03,3.845-1.769,5.948-2.187
	c2.103-0.416,4.27-0.511,6.333-0.25c5.234,0.661,9.812,3.626,10.963,9.43l3.366,16.953c0.177,0.892-0.028,1.773-0.498,2.479
	c-0.472,0.704-1.211,1.229-2.102,1.406l-2.861,0.567L91.424,153.503L91.424,153.503z"/>
<path fill="#4D4D4D" d="M95.37,133.196l-0.514-2.59c-1.309-6.596-6.458-9.958-12.338-10.701c-2.233-0.282-4.573-0.182-6.84,0.269
	c-2.268,0.449-4.468,1.249-6.423,2.361c-5.139,2.927-8.6,7.993-7.29,14.6l0.515,2.59l1.964-0.391l-0.514-2.589
	c-1.114-5.616,1.877-9.951,6.308-12.475c1.771-1.008,3.767-1.731,5.829-2.14c2.062-0.41,4.186-0.502,6.208-0.246
	c5.072,0.641,9.506,3.506,10.619,9.111l0.514,2.59L95.37,133.196L95.37,133.196z"/>
<g>
	<path fill="#076673" d="M71.612,157.693l1.53-0.304c0.384,0.432,0.979,0.653,1.585,0.532c0.911-0.18,1.502-1.064,1.321-1.977
		c-0.18-0.909-1.064-1.501-1.975-1.32c-0.607,0.12-1.072,0.553-1.262,1.098l-1.53,0.304L71.612,157.693z"/>
	<path fill="#076673" d="M92.641,153.521l-1.53,0.304c-0.19,0.544-0.654,0.977-1.261,1.097c-0.91,0.181-1.794-0.411-1.976-1.322
		c-0.18-0.909,0.411-1.794,1.321-1.975c0.606-0.12,1.202,0.102,1.584,0.532l1.53-0.304L92.641,153.521L92.641,153.521z"/>
</g>
<path fill="#666666" d="M76.609,120.021l-0.584-2.941l-1.161,0.231l-1.159,0.229l0.59,2.97c0.442-0.129,0.89-0.238,1.342-0.328
	C75.959,120.117,76.283,120.064,76.609,120.021z"/>
<g>
	<path fill="#0F7986" d="M74.104,156.058c0.276-0.056,0.455-0.323,0.4-0.598c-0.054-0.276-0.321-0.455-0.598-0.4
		c-0.276,0.055-0.455,0.322-0.4,0.598S73.829,156.112,74.104,156.058L74.104,156.058z"/>
	<path fill="#0F7986" d="M89.237,153.049c0.275-0.055,0.454-0.322,0.399-0.598c-0.055-0.275-0.321-0.455-0.598-0.4
		c-0.276,0.055-0.455,0.322-0.399,0.599C88.692,152.924,88.96,153.104,89.237,153.049z"/>
</g>
<path fill="#FEFEFE" d="M141.971,149.005c-1.788-0.309-2.987-2.01-2.679-3.798s2.008-2.987,3.797-2.679
	c1.788,0.309,2.987,2.008,2.68,3.796C145.459,148.113,143.759,149.313,141.971,149.005z"/>
<g>
	<path fill="#4D4D4D" d="M90.767,101.197c-0.052,0-18.114,0.15-15.063,15.952l-1.679,0.32C70.585,99.655,90.69,99.491,90.748,99.491
		L90.767,101.197L90.767,101.197z"/>
	<path fill="#4D4D4D" d="M126.809,99.572c2.947,0.079,8.645,0.883,13.028,6.216c4.29,5.22,7.298,14.805,5.049,32.379l-1.693-0.215
		c2.178-17.01-0.636-26.167-4.674-31.08c-3.945-4.799-9.089-5.522-11.75-5.594L126.809,99.572L126.809,99.572z"/>
</g>
</svg>
